<?xml version="1.0" standalone="no"?>
<!DOCTYPE svg PUBLIC "-//W3C//DTD SVG 20010904//EN"
 "http://www.w3.org/TR/2001/REC-SVG-20010904/DTD/svg10.dtd">
<svg version="1.0" xmlns="http://www.w3.org/2000/svg"
 width="600.000000pt" height="600.000000pt" viewBox="0 0 600.000000 600.000000"
 preserveAspectRatio="xMidYMid meet">

<g transform="translate(0.000000,600.000000) scale(0.100000,-0.100000)"
fill="#000000" stroke="none">
<path d="M2275 2990 c0 -960 1 -1352 2 -873 2 480 2 1266 0 1745 -1 480 -2 88
-2 -872z"/>
<path d="M3375 2990 c0 -960 1 -1352 2 -873 2 480 2 1266 0 1745 -1 480 -2 88
-2 -872z"/>
<path d="M4445 2990 c0 -960 1 -1352 2 -873 2 480 2 1266 0 1745 -1 480 -2 88
-2 -872z"/>
</g>
</svg>
